<svg xmlns="http://www.w3.org/2000/svg" viewBox="196 430 629 160">
<g fill="white">
<path d="M 556 455 556 456 555 457 555 459 554 460 554 461 553 462 553 463 552 464 552 466 551 467 551 468 550 469 550 471 549 472 549 473 548 474 548 475 547 476 547 478 546 479 546 480 545 481 545 482 544 483 544 485 543 486 543 487 542 488 542 489 541 490 541 492 540 493 540 494 539 495 539 497 538 498 538 499 537 500 537 501 536 502 536 504 535 505 535 506 534 507 534 508 533 509 533 511 532 512 532 513 531 514 531 516 530 517 530 518 529 519 529 520 528 521 528 523 527 524 527 525 526 526 526 528 525 529 525 530 524 531 524 532 523 533 523 535 522 536 522 537 521 538 521 540 520 541 520 542 519 543 519 544 518 545 518 547 517 548 517 549 516 550 516 551 515 552 515 554 514 555 514 556 513 557 513 559 512 560 512 561 511 562 511 563 510 564 536 564 536 563 537 562 537 560 538 559 538 558 539 557 539 556 540 555 540 553 541 552 541 551 542 550 542 549 543 548 543 546 544 545 544 544 545 543 545 541 546 540 598 540 599 541 599 543 600 544 600 545 601 546 601 547 602 548 602 550 603 551 603 552 604 553 604 554 605 555 605 557 606 558 606 559 607 560 607 561 608 562 608 564 634 564 633 563 633 562 632 561 632 560 631 559 631 557 630 556 630 555 629 554 629 553 628 552 628 550 627 549 627 548 626 547 626 545 625 544 625 543 624 542 624 541 623 540 623 538 622 537 622 536 621 535 621 534 620 533 620 531 619 530 619 529 618 528 618 527 617 526 617 524 616 523 616 522 615 521 615 519 614 518 614 517 613 516 613 515 612 514 612 512 611 511 611 510 610 509 610 508 609 507 609 505 608 504 608 503 607 502 607 500 606 499 606 498 605 497 605 496 604 495 604 493 603 492 603 491 602 490 602 489 601 488 601 486 600 485 600 484 599 483 599 482 598 481 598 479 597 478 597 477 596 476 596 474 595 473 595 472 594 471 594 470 593 469 593 467 592 466 592 465 591 464 591 463 590 462 590 460 589 459 589 458 588 457 588 456 587 455 Z" />
<path d="M 698 454 698 456 699 457 699 458 700 459 700 461 701 462 701 464 702 465 702 466 703 467 703 469 704 470 704 471 705 472 705 474 706 475 706 476 707 477 707 479 708 480 708 482 709 483 709 484 710 485 710 487 711 488 711 489 712 490 712 492 713 493 713 495 714 496 714 497 715 498 715 500 716 501 716 502 717 503 717 505 718 506 718 507 719 508 719 510 720 511 720 512 721 513 721 515 722 516 722 517 723 518 723 520 724 521 724 522 725 523 725 525 726 526 726 527 727 528 727 530 728 531 728 533 729 534 729 535 730 536 730 538 731 539 731 540 732 541 732 543 733 544 733 545 734 546 734 548 735 549 735 550 736 551 736 553 737 554 737 555 738 556 738 558 739 559 739 560 740 561 740 563 741 564 773 564 774 563 774 561 775 560 775 559 776 558 776 556 777 555 777 554 778 553 778 551 779 550 779 549 780 548 780 546 781 545 781 544 782 543 782 541 783 540 783 539 784 538 784 536 785 535 785 534 786 533 786 531 787 530 787 529 788 528 788 526 789 525 789 524 790 523 790 521 791 520 791 519 792 518 792 516 793 515 793 514 794 513 794 511 795 510 795 509 796 508 796 506 797 505 797 504 798 503 798 501 799 500 799 499 800 498 800 496 801 495 801 494 802 493 802 491 803 490 803 489 804 488 804 486 805 485 805 484 806 483 806 481 807 480 807 479 808 478 808 476 809 475 809 473 810 472 810 471 811 470 811 469 812 468 812 466 813 465 813 463 814 462 814 461 815 460 815 458 816 457 816 456 817 455 817 454 791 454 790 455 790 457 789 458 789 460 788 461 788 462 787 463 787 465 786 466 786 468 785 469 785 470 784 471 784 473 783 474 783 476 782 477 782 478 781 479 781 481 780 482 780 484 779 485 779 486 778 487 778 489 777 490 777 492 776 493 776 494 775 495 775 497 774 498 774 500 773 501 773 502 772 503 772 505 771 506 771 508 770 509 770 510 769 511 769 513 768 514 768 516 767 517 767 518 766 519 766 521 765 522 765 524 764 525 764 526 763 527 763 529 762 530 762 532 761 533 761 534 760 535 760 537 759 538 759 540 758 541 758 542 757 543 756 542 756 540 755 539 755 537 754 536 754 534 753 533 753 532 752 531 752 529 751 528 751 527 750 526 750 524 749 523 749 521 748 520 748 519 747 518 747 516 746 515 746 513 745 512 745 510 744 509 744 508 743 507 743 505 742 504 742 502 741 501 741 500 740 499 740 497 739 496 739 494 738 493 738 492 737 491 737 489 736 488 736 486 735 485 735 484 734 483 734 481 733 480 733 478 732 477 732 475 731 474 731 473 730 472 730 470 729 469 729 467 728 466 728 465 727 464 727 462 726 461 726 460 725 459 725 457 724 456 724 454 Z" />
<path d="M 653 454 653 564 677 564 677 454 Z" />
<path fill-rule="evenodd" d="M 394 454 394 564 450 564 451 563 457 563 458 562 461 562 462 561 464 561 465 560 467 560 468 559 470 559 471 558 472 558 473 557 474 557 476 555 477 555 478 554 479 554 482 551 483 551 492 542 492 541 493 540 493 539 495 537 495 536 496 535 496 534 497 533 497 531 498 530 498 528 499 527 499 525 500 524 500 520 501 519 501 500 500 499 500 495 499 494 499 491 498 490 498 488 497 487 497 486 496 485 496 484 495 483 495 482 494 481 494 480 493 479 493 478 490 475 490 474 485 469 484 469 481 466 480 466 478 464 477 464 475 462 474 462 473 461 472 461 471 460 469 460 468 459 466 459 465 458 463 458 462 457 459 457 458 456 454 456 453 455 444 455 443 454 Z M 420 478 420 540 454 540 455 539 459 539 460 538 462 538 463 537 465 537 466 536 467 536 468 535 469 535 471 533 472 533 473 532 474 532 476 530 476 529 477 528 477 526 478 525 478 504 477 503 477 500 476 499 476 498 475 497 474 497 473 496 472 496 471 495 470 495 469 494 468 494 467 493 466 493 465 492 463 492 462 491 460 491 459 490 455 490 454 489 420 489 Z" />
<path fill-rule="evenodd" d="M 206 438 204 440 204 442 204 580 206 582 286 582 287 581 289 581 290 580 291 580 292 579 293 579 294 578 295 578 296 577 297 577 301 573 302 573 302 572 331 543 331 542 332 541 332 540 333 539 333 538 334 537 334 535 335 534 335 531 336 530 336 488 335 487 335 484 334 483 334 482 333 481 333 480 332 479 332 478 331 477 331 476 299 444 298 444 297 443 296 443 294 441 292 441 291 440 289 440 288 439 281 439 280 438 Z M 239 477 240 477 242 479 243 479 244 480 245 480 246 481 248 481 249 482 283 482 284 483 286 483 287 484 289 484 294 489 294 491 295 492 295 528 294 529 294 530 293 531 293 532 290 535 289 535 288 536 287 536 286 537 281 537 280 538 279 537 278 538 277 537 273 537 272 538 271 537 268 537 267 538 266 538 265 537 264 538 249 538 248 539 246 539 245 540 244 540 242 542 241 542 Z" />
</g>
</svg>
